<?xml version="1.0" encoding="UTF-8" standalone="no"?>
<svg
   version="1.1"
   width="900"
   height="900"
   id="svg3923"
   sodipodi:docname="paperless_logo.svg"
   inkscape:export-filename="/tmp/test.png"
   inkscape:export-xdpi="96"
   inkscape:export-ydpi="96"
   inkscape:version="1.2.1 (9c6d41e410, 2022-07-14)"
   xmlns:inkscape="http://www.inkscape.org/namespaces/inkscape"
   xmlns:sodipodi="http://sodipodi.sourceforge.net/DTD/sodipodi-0.dtd"
   xmlns="http://www.w3.org/2000/svg"
   xmlns:svg="http://www.w3.org/2000/svg"
   xmlns:rdf="http://www.w3.org/1999/02/22-rdf-syntax-ns#"
   xmlns:cc="http://creativecommons.org/ns#"
   xmlns:dc="http://purl.org/dc/elements/1.1/">
  <metadata
     id="metadata3929">
    <rdf:RDF>
      <cc:Work
         rdf:about="">
        <dc:format>image/svg+xml</dc:format>
        <dc:type
           rdf:resource="http://purl.org/dc/dcmitype/StillImage" />
        <dc:title />
      </cc:Work>
    </rdf:RDF>
  </metadata>
  <defs
     id="defs3927" />
  <sodipodi:namedview
     pagecolor="#ffffff"
     bordercolor="#666666"
     borderopacity="1"
     objecttolerance="10"
     gridtolerance="10"
     guidetolerance="10"
     inkscape:pageopacity="0"
     inkscape:pageshadow="2"
     inkscape:window-width="3440"
     inkscape:window-height="1377"
     id="namedview3925"
     showgrid="false"
     inkscape:zoom="1.1360927"
     inkscape:cx="635.95163"
     inkscape:cy="395.21423"
     inkscape:window-x="-8"
     inkscape:window-y="-8"
     inkscape:window-maximized="1"
     inkscape:current-layer="g3921"
     inkscape:showpageshadow="2"
     inkscape:pagecheckerboard="0"
     inkscape:deskcolor="#d1d1d1" />
  <g
     transform="matrix(10.638298,0,0,10.638298,106.38298,-206.38301)"
     id="g3921">
    <defs
       id="SvgjsDefs1018" />
    <g
       id="SvgjsG1019"
       featureKey="root"
       style="fill:#ffffff" />
    <g
       id="SvgjsG1020"
       featureKey="symbol1"
       transform="matrix(0.10341565,0,0,0.10341565,-11.43874,18.048418)"
       inkscape:export-filename="/tmp/test.png"
       inkscape:export-xdpi="116.02285"
       inkscape:export-ydpi="116.02285"
       style="fill:#000000;fill-opacity:1">
      <defs
         id="defs3911" />
      <g
         id="g3915"
         style="fill:#000000;fill-opacity:1">
        <path
           d="M 231,798 C 227,779 219,741 218,741 49,640 69,465 125,365 c 12,126 235,213 105,367 -1,2 6,26 12,48 26,-44 65,-97 63,-102 C 145,288 645,258 749,16 c 47,234 -24,596 -426,688 -2,1 -73,126 -76,127 0,-2 -30,-1 -26,-11 2,-6 6,-14 10,-22 z M 330,625 C 267,476 452,312 544,271 356,439 324,564 330,625 Z m -104,79 c 51,-59 -9,-160 -45,-193 61,105 57,166 45,193 z"
           style="fill:#000000;fill-opacity:1"
           id="path3913"
           inkscape:connector-curvature="0" />
      </g>
    </g>
  </g>
</svg>
